<svg xmlns="http://www.w3.org/2000/svg" viewBox="0 0 128 128">
	<defs>
		<style>.cls-1{fill:#2d88ff;}.cls-2{fill:none;stroke:#000;stroke-width:5px;}.cls-3{isolation:isolate;}</style>
	</defs>
	<path class="cls-1"
	      d="M12.7,3.2H77.3a47.5,47.5,0,0,1,47.5,47.5v64.6a9.5,9.5,0,0,1-9.5,9.5H50.7A47.5,47.5,0,0,1,3.2,77.3V12.7A9.5,9.5,0,0,1,12.7,3.2Z"/>
	<path class="cls-2"
	      d="M10,2.5H78A47.5,47.5,0,0,1,125.5,50v68a7.5,7.5,0,0,1-7.5,7.5H50A47.5,47.5,0,0,1,2.5,78V10A7.5,7.5,0,0,1,10,2.5Z"/>
	<g class="cls-3">
		<path d="M39.11,76l2-13.34c.53-3.51,1.25-8,2.16-12.63H43.1c-1.78,4.18-3.79,8.64-5.57,12.19L30.91,75.47H25.53l-1.15-13.1c-.29-3.56-.53-8-.72-12.34h-.1c-.91,4.27-1.87,9.12-2.69,12.63L17.66,76H11.32l8.11-32.35H28.7l1,12.28c.19,3,.52,6.73.57,10.32h.19a108.31,108.31,0,0,1,4.37-10.32l6-12.28H50.2L45.83,76Z"/>
		<path d="M57.5,44.27A37.72,37.72,0,0,1,66,43.41c2.88,0,6.24.47,8.59,2.16A7.89,7.89,0,0,1,78,52.43a11.24,11.24,0,0,1-4.41,9.12c-2.64,2.07-6.39,3-10.32,3a20.44,20.44,0,0,1-2.84-.2L58.26,76H51.5Zm4,14.45a13,13,0,0,0,2.64.24c4.18,0,6.91-2.69,6.91-5.91s-2.25-4.12-4.94-4.12a12,12,0,0,0-2.79.24Z"/>
		<path d="M105.35,76l2-13.34c.53-3.51,1.25-8,2.16-12.63h-.14c-1.78,4.18-3.79,8.64-5.57,12.19L97.14,75.47H91.77l-1.15-13.1c-.29-3.56-.53-8-.72-12.34h-.1c-.91,4.27-1.87,9.12-2.69,12.63L83.9,76H77.56l8.11-32.35h9.27l1,12.28c.19,3,.52,6.73.57,10.32h.19a108.31,108.31,0,0,1,4.37-10.32l6-12.28h9.36L112.07,76Z"/>
	</g>
	<g class="cls-3">
		<path d="M19,82.42c-.05-1.13-.11-2.49-.1-3.67h0c-.29,1.06-.65,2.25-1,3.35l-1.27,3.8H15.29l-1.17-3.75c-.34-1.12-.65-2.31-.88-3.4h0c0,1.14-.09,2.53-.15,3.73L12.86,86H11.37L12,77.24h2.11l1.14,3.52c.31,1,.59,2.07.81,3h0c.23-1,.53-2,.87-3l1.21-3.51h2.08l.5,8.76H19.15Z"/>
		<path d="M27.73,82.78a3.14,3.14,0,0,1-3.25,3.36,3.06,3.06,0,0,1-3.17-3.26,3.12,3.12,0,0,1,3.28-3.35A3,3,0,0,1,27.73,82.78ZM23,82.84c0,1.22.6,2.15,1.57,2.15s1.55-.9,1.55-2.18c0-1-.44-2.11-1.53-2.11S23,81.79,23,82.84Z"/>
		<path d="M34.26,76.77v7.45c0,.65,0,1.35.05,1.78H32.88l-.06-1h0a2.28,2.28,0,0,1-2.07,1.14c-1.51,0-2.7-1.28-2.7-3.23,0-2.12,1.31-3.38,2.83-3.38a2,2,0,0,1,1.78.83h0V76.77Zm-1.6,5.54a2,2,0,0,0,0-.42,1.4,1.4,0,0,0-1.38-1.13c-1,0-1.6.91-1.6,2.09s.57,2,1.59,2a1.42,1.42,0,0,0,1.38-1.14,1.66,1.66,0,0,0,0-.46Z"/>
		<path d="M36.48,83.28a1.72,1.72,0,0,0,2,1.64,4.62,4.62,0,0,0,1.76-.29l.23,1.11a6,6,0,0,1-2.21.39A3,3,0,0,1,35,82.93,3.13,3.13,0,0,1,38,79.53c2.05,0,2.73,1.69,2.73,3.08a3.49,3.49,0,0,1-.05.67Zm2.78-1.11A1.35,1.35,0,0,0,38,80.62a1.56,1.56,0,0,0-1.47,1.55Z"/>
		<path d="M41.43,76.77h1.62V86H41.43Z"/>
		<path d="M44.22,77.35a14.22,14.22,0,0,1,2.44-.18,4,4,0,0,1,2.59.72,2.48,2.48,0,0,1,.85,1.94,2.64,2.64,0,0,1-.75,2,3.86,3.86,0,0,1-2.77.94,4.44,4.44,0,0,1-.78,0V86H44.22Zm1.58,4.09a3.42,3.42,0,0,0,.78.06c1.2,0,1.93-.58,1.93-1.61s-.68-1.5-1.79-1.5a4.3,4.3,0,0,0-.92.08Z"/>
		<path d="M54.08,86l-.1-.7h0a2.35,2.35,0,0,1-1.87.84,1.87,1.87,0,0,1-2-1.88c0-1.6,1.42-2.41,3.76-2.39v-.11c0-.41-.17-1.1-1.29-1.1a3.33,3.33,0,0,0-1.7.46l-.32-1a4.65,4.65,0,0,1,2.29-.55,2.36,2.36,0,0,1,2.61,2.66v2.29a9.42,9.42,0,0,0,.1,1.52Zm-.2-3.09c-1.14,0-2.22.22-2.22,1.18a.84.84,0,0,0,.91.91,1.3,1.3,0,0,0,1.25-.87,1.17,1.17,0,0,0,.06-.35Z"/>
		<path d="M61.15,85.8a4.5,4.5,0,0,1-1.79.33,3,3,0,0,1-3.26-3.22,3.27,3.27,0,0,1,3.52-3.38,4,4,0,0,1,1.55.3L60.88,81a2.78,2.78,0,0,0-1.21-.25,2.05,2.05,0,0,0,0,4.1,3.1,3.1,0,0,0,1.26-.25Z"/>
		<path d="M63.31,82.45h0a8,8,0,0,1,.51-.74l1.53-2H67.3L65,82.26,67.64,86h-2l-1.82-2.79-.55.63V86h-1.6V76.77h1.6Z"/>
		<path d="M75.17,82.42c0-1.13-.12-2.49-.11-3.67h0c-.29,1.06-.65,2.25-1,3.35l-1.28,3.8H71.48l-1.17-3.75c-.34-1.12-.65-2.31-.89-3.4h0c0,1.14-.1,2.53-.16,3.73L69,86H67.55l.58-8.76h2.11l1.14,3.52c.32,1,.59,2.07.81,3h0c.23-1,.53-2,.87-3l1.21-3.51h2.08L76.9,86H75.34Z"/>
		<path d="M81.45,86l-.11-.7h0a2.35,2.35,0,0,1-1.87.84,1.88,1.88,0,0,1-2-1.88c0-1.6,1.42-2.41,3.76-2.39v-.11c0-.41-.17-1.1-1.29-1.1a3.38,3.38,0,0,0-1.7.46l-.31-1a4.62,4.62,0,0,1,2.29-.55,2.36,2.36,0,0,1,2.61,2.66v2.29A10.89,10.89,0,0,0,82.89,86Zm-.21-3.09c-1.13,0-2.21.22-2.21,1.18a.84.84,0,0,0,.91.91,1.31,1.31,0,0,0,1.25-.87,1.14,1.14,0,0,0,0-.35Z"/>
		<path d="M83.86,81.55c0-.72,0-1.34,0-1.88h1.41l.07,1h0a2.29,2.29,0,0,1,2-1.09c1.1,0,2.25.71,2.25,2.71V86H88V82.42c0-.91-.34-1.59-1.21-1.59a1.34,1.34,0,0,0-1.25.93,1.73,1.73,0,0,0-.06.52V86H83.86Z"/>
		<path d="M94.24,86l-.11-.7h0a2.38,2.38,0,0,1-1.88.84,1.88,1.88,0,0,1-2-1.88c0-1.6,1.42-2.41,3.76-2.39v-.11c0-.41-.17-1.1-1.28-1.1a3.39,3.39,0,0,0-1.71.46l-.31-1A4.65,4.65,0,0,1,93,79.53a2.36,2.36,0,0,1,2.61,2.66v2.29A10.89,10.89,0,0,0,95.68,86ZM94,82.91c-1.13,0-2.21.22-2.21,1.18a.84.84,0,0,0,.91.91A1.3,1.3,0,0,0,94,84.13a1.14,1.14,0,0,0,0-.35Z"/>
		<path d="M102.44,79.67c0,.43,0,1,0,1.82v3.59a3.65,3.65,0,0,1-.94,2.87,3.6,3.6,0,0,1-2.44.77,4.46,4.46,0,0,1-2.21-.51L97.15,87a3.76,3.76,0,0,0,1.85.48,1.68,1.68,0,0,0,1.82-1.91V85h0a2.15,2.15,0,0,1-1.85.93,2.81,2.81,0,0,1-2.69-3.09,3,3,0,0,1,2.88-3.34,2,2,0,0,1,1.83,1h0l.06-.84Zm-1.65,2.53a1.58,1.58,0,0,0-.05-.43,1.32,1.32,0,0,0-1.3-1c-.9,0-1.56.78-1.56,2.06,0,1.08.54,2,1.55,2a1.37,1.37,0,0,0,1.3-1,3.55,3.55,0,0,0,.06-.57Z"/>
		<path d="M104.61,83.28a1.72,1.72,0,0,0,2,1.64,4.62,4.62,0,0,0,1.76-.29l.23,1.11a6,6,0,0,1-2.21.39,3,3,0,0,1-3.26-3.2,3.13,3.13,0,0,1,3.09-3.4c2.06,0,2.73,1.69,2.73,3.08a3.49,3.49,0,0,1-.05.67Zm2.78-1.11a1.35,1.35,0,0,0-1.31-1.55,1.56,1.56,0,0,0-1.47,1.55Z"/>
		<path d="M109.57,81.71c0-.86,0-1.47-.06-2h1.39l.06,1.21H111a1.88,1.88,0,0,1,1.73-1.35,2.13,2.13,0,0,1,.37,0v1.51a2.69,2.69,0,0,0-.46,0,1.4,1.4,0,0,0-1.43,1.21,2.34,2.34,0,0,0-.06.49V86h-1.59Z"/>
	</g>
</svg>