<svg xmlns="http://www.w3.org/2000/svg" viewBox="0 0 145.24 45.31">
	<defs>
		<style>.cls-1{isolation:isolate;}</style>
	</defs>
	<g class="cls-1">
		<path d="M7.66,39c0-1.13-.11-2.5-.1-3.68h0c-.29,1.07-.65,2.25-1,3.35l-1.27,3.8H4L2.8,38.75c-.34-1.12-.65-2.32-.88-3.41h0c0,1.14-.09,2.54-.16,3.73L1.54,42.6H0l.59-8.77H2.74l1.14,3.53c.31,1,.58,2.06.81,3h0c.23-.95.53-2,.87-3.06l1.21-3.51H8.89l.5,8.77H7.83Z"/>
		<path d="M16.41,39.37a3.14,3.14,0,0,1-3.25,3.37A3.06,3.06,0,0,1,10,39.48a3.13,3.13,0,0,1,3.28-3.36A3,3,0,0,1,16.41,39.37Zm-4.77.07c0,1.22.6,2.14,1.57,2.14s1.55-.9,1.55-2.17c0-1-.44-2.12-1.53-2.12S11.64,38.38,11.64,39.44Z"/>
		<path d="M22.94,33.36v7.45c0,.65,0,1.36,0,1.79H21.56l-.06-1h0a2.28,2.28,0,0,1-2.07,1.15c-1.51,0-2.7-1.29-2.7-3.24,0-2.12,1.31-3.38,2.83-3.38a2,2,0,0,1,1.78.83h0V33.36Zm-1.6,5.54a1.9,1.9,0,0,0,0-.41,1.39,1.39,0,0,0-1.38-1.13c-1,0-1.6.91-1.6,2.09s.57,2,1.59,2a1.41,1.41,0,0,0,1.38-1.13,1.74,1.74,0,0,0,.05-.47Z"/>
		<path d="M25.16,39.88a1.73,1.73,0,0,0,1.95,1.64,4.86,4.86,0,0,0,1.76-.29l.23,1.11a6,6,0,0,1-2.21.39,3,3,0,0,1-3.26-3.2,3.13,3.13,0,0,1,3.09-3.41c2.05,0,2.73,1.69,2.73,3.08a4.88,4.88,0,0,1-.05.68Zm2.78-1.12a1.36,1.36,0,0,0-1.31-1.55,1.57,1.57,0,0,0-1.47,1.55Z"/>
		<path d="M30.11,33.36h1.62V42.6H30.11Z"/>
		<path d="M32.9,34a14.22,14.22,0,0,1,2.44-.18,4,4,0,0,1,2.59.71,2.48,2.48,0,0,1,.85,1.94,2.68,2.68,0,0,1-.75,2,3.86,3.86,0,0,1-2.77.94,4.34,4.34,0,0,1-.78-.06V42.6H32.9ZM34.48,38a3.35,3.35,0,0,0,.78.07c1.2,0,1.93-.59,1.93-1.62S36.51,35,35.4,35a4.3,4.3,0,0,0-.92.08Z"/>
		<path d="M42.76,42.6l-.1-.71h0a2.33,2.33,0,0,1-1.87.85,1.88,1.88,0,0,1-2-1.89c0-1.6,1.42-2.4,3.76-2.39v-.1c0-.42-.17-1.11-1.29-1.11a3.33,3.33,0,0,0-1.7.47l-.32-1a4.53,4.53,0,0,1,2.29-.56,2.37,2.37,0,0,1,2.61,2.67v2.28a9.47,9.47,0,0,0,.1,1.53Zm-.21-3.1c-1.13,0-2.21.22-2.21,1.18a.84.84,0,0,0,.91.91,1.29,1.29,0,0,0,1.25-.87,1.06,1.06,0,0,0,0-.35Z"/>
		<path d="M49.83,42.4a4.5,4.5,0,0,1-1.79.33,3,3,0,0,1-3.26-3.23,3.27,3.27,0,0,1,3.52-3.38,4,4,0,0,1,1.55.3l-.29,1.2a2.78,2.78,0,0,0-1.21-.25,2,2,0,0,0,0,4.09,3.12,3.12,0,0,0,1.26-.24Z"/>
		<path d="M52,39.05h0a8,8,0,0,1,.51-.74l1.53-2.05H56l-2.34,2.59,2.68,3.75h-2l-1.82-2.8-.55.64V42.6h-1.6V33.36H52Z"/>
		<path d="M63.85,39c-.05-1.13-.12-2.5-.11-3.68h0c-.29,1.07-.65,2.25-1,3.35l-1.28,3.8H60.16L59,38.75c-.34-1.12-.65-2.32-.89-3.41h0c0,1.14-.1,2.54-.16,3.73l-.19,3.53h-1.5l.58-8.77h2.11l1.14,3.53c.32,1,.59,2.06.81,3h0c.23-.95.53-2,.87-3.06L63,33.83h2.08l.51,8.77H64Z"/>
		<path d="M70.13,42.6,70,41.89h0a2.33,2.33,0,0,1-1.87.85,1.89,1.89,0,0,1-2-1.89c0-1.6,1.42-2.4,3.76-2.39v-.1c0-.42-.17-1.11-1.29-1.11a3.39,3.39,0,0,0-1.7.47l-.31-1a4.5,4.5,0,0,1,2.29-.56,2.37,2.37,0,0,1,2.61,2.67v2.28a9.6,9.6,0,0,0,.09,1.53Zm-.21-3.1c-1.13,0-2.21.22-2.21,1.18a.83.83,0,0,0,.91.91,1.29,1.29,0,0,0,1.25-.87,1.06,1.06,0,0,0,0-.35Z"/>
		<path d="M72.54,38.15c0-.73,0-1.34-.05-1.89H73.9l.07,1h0a2.31,2.31,0,0,1,2-1.09c1.1,0,2.25.72,2.25,2.72V42.6h-1.6V39c0-.91-.34-1.6-1.21-1.6a1.35,1.35,0,0,0-1.25.94,1.65,1.65,0,0,0-.06.52V42.6H72.54Z"/>
		<path d="M82.92,42.6l-.11-.71h0a2.35,2.35,0,0,1-1.88.85,1.89,1.89,0,0,1-2-1.89c0-1.6,1.42-2.4,3.76-2.39v-.1c0-.42-.17-1.11-1.28-1.11a3.4,3.4,0,0,0-1.71.47l-.31-1a4.53,4.53,0,0,1,2.29-.56,2.37,2.37,0,0,1,2.61,2.67v2.28a10.94,10.94,0,0,0,.09,1.53Zm-.21-3.1c-1.13,0-2.21.22-2.21,1.18a.83.83,0,0,0,.91.91,1.29,1.29,0,0,0,1.25-.87,1.06,1.06,0,0,0,0-.35Z"/>
		<path d="M91.12,36.26c0,.43-.05,1-.05,1.82v3.59a3,3,0,0,1-3.38,3.64,4.57,4.57,0,0,1-2.21-.5l.35-1.21a3.87,3.87,0,0,0,1.85.48,1.68,1.68,0,0,0,1.82-1.91v-.55h0a2.13,2.13,0,0,1-1.85.94,2.81,2.81,0,0,1-2.69-3.1,3,3,0,0,1,2.88-3.34,2,2,0,0,1,1.83,1h0l.06-.85ZM89.47,38.8a1.54,1.54,0,0,0,0-.43,1.32,1.32,0,0,0-1.3-1c-.9,0-1.56.78-1.56,2.07,0,1.08.54,2,1.55,2a1.38,1.38,0,0,0,1.3-1,3.55,3.55,0,0,0,.06-.57Z"/>
		<path d="M93.29,39.88a1.73,1.73,0,0,0,1.95,1.64A4.82,4.82,0,0,0,97,41.23l.23,1.11a6,6,0,0,1-2.21.39,3,3,0,0,1-3.26-3.2,3.13,3.13,0,0,1,3.09-3.41c2.06,0,2.73,1.69,2.73,3.08a3.7,3.7,0,0,1,0,.68Zm2.78-1.12a1.36,1.36,0,0,0-1.31-1.55,1.57,1.57,0,0,0-1.47,1.55Z"/>
		<path d="M98.25,38.31c0-.86,0-1.47-.06-2.05h1.39l.06,1.21h0a1.89,1.89,0,0,1,1.73-1.35,1.45,1.45,0,0,1,.37,0v1.51a2,2,0,0,0-.46-.05,1.4,1.4,0,0,0-1.43,1.2,2.54,2.54,0,0,0-.06.5V42.6H98.25Z"/>
	</g>
	<g class="cls-1">
		<path d="M120.28,31.85a17.35,17.35,0,0,1-5.23.91,7.83,7.83,0,0,1-5.4-1.77,6.54,6.54,0,0,1-2-5,9.55,9.55,0,0,1,3.31-7.39,11.08,11.08,0,0,1,7.13-2.35,11,11,0,0,1,4.3.72l-1,2.93a8.64,8.64,0,0,0-3.43-.67,6.67,6.67,0,0,0-4.13,1.29,6.68,6.68,0,0,0-2.33,5.23c0,2.72,1.61,4.09,4.16,4.09a4.44,4.44,0,0,0,1.75-.29l.65-3.41h-2.5l.53-2.76h5.88Z"/>
		<path d="M129.52,16.42l-1.78,9.31a9.24,9.24,0,0,0-.16,1.92,2.16,2.16,0,0,0,2.35,2.3c1.8,0,3-1.19,3.57-4.2l1.78-9.33h3.46L137,25.61c-.93,4.9-3.09,7.25-7.48,7.25-3.34,0-5.38-1.71-5.38-5.16a13.08,13.08,0,0,1,.24-2.26l1.7-9Z"/>
		<path d="M145.24,16.42,142.17,32.6h-3.46l3.07-16.18Z"/>
	</g>
	<g class="cls-1">
		<path d="M27.79,32.6l2-13.35c.53-3.5,1.25-8,2.16-12.63h-.14C30,10.8,28,15.27,26.21,18.82L19.59,32.07H14.21L13.06,19c-.29-3.55-.53-8-.72-12.34h-.1c-.91,4.28-1.87,9.13-2.69,12.63L6.34,32.6H0L8.11.24h9.27l1,12.29c.19,3,.52,6.72.57,10.32h.19a107.22,107.22,0,0,1,4.37-10.32l6-12.29h9.36L34.52,32.6Z"/>
		<path d="M46.18.86A38.31,38.31,0,0,1,54.63,0c2.88,0,6.24.48,8.59,2.16A7.9,7.9,0,0,1,66.72,9a11.25,11.25,0,0,1-4.41,9.13c-2.64,2.06-6.39,3-10.32,3a20.66,20.66,0,0,1-2.84-.19L46.94,32.6H40.18Zm4,14.45a12.3,12.3,0,0,0,2.64.24c4.18,0,6.91-2.68,6.91-5.9s-2.25-4.13-4.94-4.13A12.57,12.57,0,0,0,52,5.76Z"/>
		<path d="M94,32.6l2-13.35c.53-3.5,1.25-8,2.16-12.63H98c-1.78,4.18-3.79,8.65-5.57,12.2L85.82,32.07H80.45L79.3,19c-.29-3.55-.53-8-.72-12.34h-.1c-.91,4.28-1.87,9.13-2.69,12.63L72.58,32.6H66.24L74.35.24h9.27l1,12.29c.2,3,.53,6.72.58,10.32h.19a107.22,107.22,0,0,1,4.37-10.32l6-12.29h9.36L100.75,32.6Z"/>
	</g>
</svg>